<svg width="85" height="42" viewBox="0 0 85 42" fill="none" xmlns="http://www.w3.org/2000/svg">
<path d="M25.7134 14.5279C24.969 14.722 24.2832 15.066 23.6584 15.5546C23.0115 16.0592 22.5102 16.7524 22.1427 17.6099L21.9332 18.0988L22.4341 18.2777L24.3432 18.9595L24.7728 19.1129L24.9649 18.6992C25.1438 18.3137 25.4664 17.9241 25.9672 17.5381C26.3965 17.2071 27.028 17.0114 27.9205 17.0114C28.7695 17.0114 29.307 17.2246 29.6336 17.5594L29.6358 17.5616C29.9793 17.9094 30.1818 18.4221 30.1818 19.1705V19.2386C30.1818 19.4271 30.127 19.4624 30.0878 19.4844L30.0877 19.4844L30.0831 19.487C29.9478 19.5649 29.669 19.6497 29.1875 19.7046C28.6877 19.7564 28.0391 19.8335 27.2431 19.9359L27.2419 19.936C26.6192 20.0175 25.9996 20.128 25.383 20.2676C24.7453 20.4074 24.1558 20.6215 23.6175 20.9124C23.0483 21.2198 22.5893 21.6485 22.2476 22.1935C21.8866 22.7632 21.7273 23.4728 21.7273 24.2841C21.7273 25.2163 21.9458 26.0436 22.4066 26.7414L22.4078 26.7433C22.8583 27.4189 23.4669 27.9352 24.2218 28.2905L24.2249 28.2919C24.9739 28.6381 25.7995 28.8068 26.6932 28.8068C27.5016 28.8068 28.2179 28.6865 28.8254 28.4252C29.3617 28.1945 29.8187 27.9093 30.1818 27.5613M25.7134 14.5279C25.7139 14.5278 25.7144 14.5276 25.7149 14.5275L25.8409 15.0114L25.7121 14.5282C25.7125 14.5281 25.713 14.528 25.7134 14.5279ZM25.7134 14.5279C26.4339 14.3359 27.1472 14.2386 27.8523 14.2386C28.3109 14.2386 28.8247 14.2941 29.3904 14.4001M29.3904 14.4001C29.3894 14.3999 29.3884 14.3997 29.3874 14.3996L29.3011 14.892L29.3933 14.4006C29.3923 14.4004 29.3914 14.4002 29.3904 14.4001ZM29.3904 14.4001C30.0044 14.5081 30.5918 14.7324 31.151 15.0678M31.151 15.0678C31.1507 15.0676 31.1504 15.0674 31.15 15.0672L30.8949 15.4972L31.1521 15.0684C31.1518 15.0682 31.1514 15.068 31.151 15.0678ZM31.151 15.0678C31.7569 15.4275 32.2438 15.962 32.6198 16.6453C33.0161 17.3651 33.1932 18.2878 33.1932 19.375V28V28.5H32.6932H30.6818H30.1818V28V27.5613M30.1818 27.5613C30.2064 27.5377 30.2306 27.5138 30.2544 27.4896C30.5956 27.1423 30.8622 26.7939 31.0303 26.4436L30.6818 26.2764V26.2273H30.5795H30.1818V27.4183V27.5613ZM31.1818 20.0394V21.4205V23.2614C31.1818 23.8976 31.0152 24.5023 30.6903 25.0683C30.3624 25.6496 29.8785 26.1141 29.259 26.4656C28.6205 26.8312 27.8595 27 27 27C26.1262 27 25.3599 26.8075 24.7348 26.3862L24.7296 26.3827L24.7296 26.3827C24.061 25.9198 23.7386 25.228 23.7386 24.3864C23.7386 23.7847 23.901 23.2479 24.2803 22.837L24.2806 22.8367C24.6245 22.4647 25.0642 22.1987 25.5806 22.0285C26.0683 21.864 26.5883 21.7466 27.1393 21.6747L31.1818 20.0394ZM31.1818 20.0394L30.3064 21.0899C30.3005 21.0941 30.2846 21.1048 30.2537 21.1203C30.1956 21.1493 30.1074 21.1839 29.9813 21.2211C29.7201 21.2941 29.4109 21.3611 29.0516 21.4211C28.6884 21.4769 28.3337 21.5272 27.9877 21.5719L31.1818 20.0394ZM38.8757 28.5H38.3757H36.3643H35.8643V28V14.9091V14.4091H36.3643H38.3075H38.8075V14.9091V15.5878C39.0415 15.3428 39.307 15.1244 39.6032 14.933C40.3318 14.4566 41.2418 14.2386 42.2962 14.2386C43.2515 14.2386 44.1118 14.4349 44.8614 14.8446C45.6234 15.2553 46.2092 15.8795 46.6202 16.6948L38.8757 28.5ZM38.8757 28.5V28V20.125C38.8757 19.4262 39.0086 18.8649 39.2499 18.4203C39.4971 17.9646 39.8258 17.6298 40.2372 17.4005L38.8757 28.5ZM57.9686 26.2323L57.9661 26.2343C57.3093 26.7302 56.5172 26.9659 55.6193 26.9659C54.6864 26.9659 53.8684 26.7181 53.1982 26.1954L53.1938 26.192L53.1938 26.192C52.5534 25.6809 52.078 25.0016 51.7604 24.1733L51.7588 24.1691C51.451 23.3443 51.3011 22.4374 51.3011 21.4545C51.3011 20.4837 51.448 19.5931 51.7509 18.7896L51.7516 18.7876C52.0645 17.968 52.5394 17.3002 53.1839 16.8053L57.9686 26.2323ZM57.9686 26.2323C58.6088 25.7424 59.0831 25.0742 59.4011 24.2512L59.4015 24.25M57.9686 26.2323L59.4015 24.25M59.4015 24.25C59.7175 23.4261 59.8693 22.4912 59.8693 21.4545M59.4015 24.25L59.8693 21.4545M59.8693 21.4545C59.8693 20.43 59.7205 19.5112 59.4094 18.7086M59.8693 21.4545L59.4094 18.7086M59.4094 18.7086C59.0963 17.8949 58.6227 17.2388 57.9789 16.7655C57.3214 16.2763 56.5246 16.0455 55.6193 16.0455C54.6785 16.0455 53.8553 16.2885 53.1842 16.8051L59.4094 18.7086ZM23.0927 22.728L23.0942 22.7257C23.3433 22.3281 23.6737 22.0186 24.0928 21.7922C24.5426 21.5492 25.0435 21.3657 25.5985 21.2441L25.6019 21.2433C26.1889 21.1104 26.7784 21.0053 27.3706 20.9277C28.1641 20.8257 28.8044 20.7496 29.2929 20.6991L29.2929 20.6991L29.2979 20.6985C29.8136 20.6399 30.2606 20.5378 30.5793 20.3552C31.0044 20.1156 31.1818 19.6971 31.1818 19.2386V19.1705C31.1818 18.2378 30.9245 17.4441 30.3485 16.8602C29.7661 16.2638 28.9232 16.0114 27.9205 16.0114C26.8925 16.0114 26.0183 16.2361 25.3567 16.746C24.9094 17.0908 24.5458 17.4661 24.2809 17.8754L23.2955 17.5235C23.5697 17.0261 23.8975 16.6364 24.2734 16.3431L24.274 16.3427C24.7963 15.9341 25.3598 15.6534 25.967 15.4952L25.9697 15.4945C26.6125 15.3231 27.2396 15.2386 27.8523 15.2386C28.2338 15.2386 28.6849 15.2852 29.209 15.3835L29.209 15.3835L29.2148 15.3845C29.7017 15.4699 30.1754 15.6485 30.6376 15.9259L30.6397 15.9271C31.0675 16.181 31.4383 16.5724 31.7438 17.1275C32.0294 17.6462 32.1932 18.3827 32.1932 19.375V27.5H31.1818V26.2273V25.7273H30.6818H30.5795H30.2649L30.1288 26.0109C30.0242 26.2288 29.8362 26.4884 29.5411 26.7888C29.2787 27.0558 28.9144 27.2984 28.4303 27.5066C27.981 27.6999 27.4075 27.8068 26.6932 27.8068C25.9284 27.8068 25.2488 27.6633 24.646 27.3849C24.0497 27.104 23.5852 26.7061 23.2405 26.1895C22.9063 25.683 22.7273 25.056 22.7273 24.2841C22.7273 23.5959 22.8632 23.0899 23.0927 22.728ZM28.7647 25.5963L28.7628 25.5974C28.3106 25.8565 27.731 26 27 26C26.2731 26 25.7164 25.8409 25.2963 25.5588C24.9324 25.3058 24.7386 24.9412 24.7386 24.3864C24.7386 23.9655 24.8489 23.6956 25.0149 23.5156C25.2274 23.2857 25.5143 23.103 25.895 22.9778L25.8985 22.9766C26.3193 22.8346 26.7757 22.7306 27.2692 22.6663L27.2698 22.6662C27.4818 22.6383 27.76 22.6045 28.1053 22.5649L28.1053 22.565L28.1123 22.5641C28.4688 22.5181 28.8336 22.4664 29.2067 22.409L29.2067 22.409L29.2129 22.408C29.5706 22.3484 29.8941 22.2803 30.1818 22.203V23.2614C30.1818 23.7154 30.0648 24.1498 29.8222 24.5719L29.82 24.5757C29.5913 24.9818 29.2463 25.3233 28.7647 25.5963ZM37.8075 16.9545V17.4545H38.3075H38.478H38.6851C38.57 17.6064 38.4653 17.7694 38.3709 17.9434C38.0326 18.5669 37.8757 19.301 37.8757 20.125V27.5H36.8643V15.4091H37.8075V16.9545ZM39.7518 16.5262C39.4439 16.6977 39.1709 16.9103 38.933 17.1617C39.1995 16.5856 39.6009 16.1247 40.1469 15.7724L40.1495 15.7706C40.6707 15.4295 41.3739 15.2386 42.2962 15.2386C43.113 15.2386 43.8033 15.4057 44.3829 15.7228L44.3858 15.7243C44.9524 16.0294 45.4001 16.4956 45.7275 17.1454L45.7282 17.1468C46.0513 17.7831 46.228 18.6196 46.228 19.6818V27.5H45.2166V19.8182C45.2166 18.7045 44.9261 17.7674 44.2825 17.0752C43.6365 16.3747 42.76 16.0455 41.7166 16.0455C40.9999 16.0455 40.3414 16.2016 39.7539 16.5251L39.7518 16.5262ZM52.18 27.8621L52.182 27.8634C53.1063 28.4733 54.167 28.7727 55.3466 28.7727C56.2359 28.7727 57.002 28.6266 57.6076 28.2931L57.6114 28.291C58.1442 27.9917 58.5817 27.6414 58.9034 27.2318V28V28.5H59.4034H61.3466H61.8466V28V10.5455V10.0455H61.3466H59.3352H58.8352V10.5455V15.6814C58.5314 15.3136 58.1294 14.9987 57.6467 14.7295C57.0485 14.3867 56.2788 14.2386 55.3807 14.2386C54.1908 14.2386 53.122 14.5375 52.1918 15.1472C51.2648 15.7547 50.5504 16.6117 50.044 17.6978C49.5352 18.7888 49.2898 20.0572 49.2898 21.4886C49.2898 22.9309 49.5351 24.2074 50.0435 25.3041L50.044 25.3051C50.5499 26.3899 51.2602 27.2488 52.18 27.8621ZM57.1514 15.5983L57.1514 15.5983L57.1573 15.6016C57.6119 15.8547 57.9306 16.129 58.1388 16.4142L58.1387 16.4142L58.1442 16.4214C58.4078 16.7692 58.6072 17.0482 58.7456 17.2611L58.8934 17.4886H59.1648H59.3352H59.8352V16.9886V11.0455H60.8466V27.5H59.9034V25.9886V25.4886H59.4034H59.1648H58.8862L58.7396 25.7255C58.6032 25.9458 58.4033 26.233 58.1354 26.5903C57.9144 26.8799 57.5845 27.1589 57.1235 27.4181C56.7178 27.6409 56.1379 27.7727 55.3466 27.7727C54.3448 27.7727 53.4796 27.5212 52.7336 27.0293C51.9837 26.529 51.3878 25.8203 50.9508 24.8834C50.5161 23.946 50.2898 22.8191 50.2898 21.4886C50.2898 20.1701 50.5159 19.0521 50.9503 18.1204C51.3871 17.1838 51.9852 16.4782 52.74 15.9835C53.4917 15.4909 54.366 15.2386 55.3807 15.2386C56.1856 15.2386 56.7614 15.3741 57.1514 15.5983ZM58.4765 19.0687L58.477 19.0699C58.734 19.7331 58.8693 20.5246 58.8693 21.4545C58.8693 22.3948 58.7315 23.204 58.4681 23.8913C58.2068 24.5674 57.8349 25.075 57.3621 25.4372C56.9055 25.7816 56.3344 25.9659 55.6193 25.9659C54.8716 25.9659 54.2812 25.7711 53.8153 25.4086C53.3324 25.0225 52.9565 24.4985 52.695 23.8175C52.4351 23.1201 52.3011 22.3345 52.3011 21.4545C52.3011 20.5847 52.4326 19.8164 52.6864 19.1428C52.9417 18.4746 53.3131 17.9668 53.7931 17.5983L53.7937 17.5979C54.2588 17.2397 54.8559 17.0455 55.6193 17.0455C56.3497 17.0455 56.9273 17.229 57.3831 17.5686L57.3858 17.5706C57.8548 17.9151 58.2216 18.406 58.4765 19.0687ZM84.5 21C84.5 26.5045 79.9706 31.6259 72.3305 35.401C64.7221 39.1604 54.1761 41.5 42.5 41.5C30.8239 41.5 20.2779 39.1604 12.6695 35.401C5.02939 31.6259 0.5 26.5045 0.5 21C0.5 15.4955 5.02939 10.3741 12.6695 6.59902C20.2779 2.83955 30.8239 0.5 42.5 0.5C54.1761 0.5 64.7221 2.83955 72.3305 6.59902C79.9706 10.3741 84.5 15.4955 84.5 21Z" stroke="white"/>
</svg>
