<svg width="89" height="46" viewBox="0 0 89 46" fill="none" xmlns="http://www.w3.org/2000/svg">
<path d="M44.5 45C56.356 45 67.139 42.6276 74.995 38.7458C82.7879 34.8952 88 29.3881 88 23C88 16.6119 82.7879 11.1048 74.995 7.25423C67.139 3.37241 56.356 1 44.5 1C32.644 1 21.861 3.37241 14.005 7.25423C6.21214 11.1048 1 16.6119 1 23C1 29.3881 6.21214 34.8952 14.005 38.7458C21.861 42.6276 32.644 45 44.5 45Z" stroke="#D9D9D9" stroke-width="2"/>
<path d="M26.429 30.2401C25.5241 30.2401 24.7209 30.0893 24.0192 29.7876C23.3236 29.4799 22.7727 29.0182 22.3665 28.4027C21.9664 27.781 21.7663 27.0024 21.7663 26.0668C21.7663 25.2789 21.9048 24.6141 22.1818 24.0724C22.4588 23.5308 22.8404 23.0907 23.3267 22.7521C23.813 22.4136 24.3731 22.1581 25.0071 21.9858C25.6411 21.8073 26.3182 21.6873 27.0384 21.6257C27.8447 21.5518 28.4941 21.4749 28.9865 21.3949C29.4789 21.3087 29.8359 21.1887 30.0575 21.0348C30.2853 20.8748 30.3991 20.6501 30.3991 20.3608V20.3146C30.3991 19.8407 30.236 19.4744 29.9098 19.2159C29.5836 18.9574 29.1435 18.8281 28.5895 18.8281C27.9924 18.8281 27.5123 18.9574 27.1491 19.2159C26.786 19.4744 26.5552 19.8314 26.4567 20.2869L22.2926 20.1392C22.4157 19.2775 22.7327 18.508 23.2436 17.831C23.7607 17.1477 24.4685 16.6122 25.3672 16.2244C26.272 15.8305 27.3584 15.6335 28.6264 15.6335C29.5313 15.6335 30.3653 15.7412 31.1286 15.9567C31.8918 16.166 32.5566 16.4737 33.1229 16.88C33.6892 17.2801 34.1262 17.7725 34.4339 18.3572C34.7479 18.942 34.9048 19.6098 34.9048 20.3608V30H30.6577V28.0241H30.5469C30.2945 28.5043 29.9714 28.9105 29.5774 29.2429C29.1896 29.5753 28.7311 29.8246 28.2017 29.9908C27.6785 30.157 27.0876 30.2401 26.429 30.2401ZM27.8232 27.2855C28.3094 27.2855 28.7464 27.187 29.1342 26.9901C29.5282 26.7931 29.8421 26.5223 30.076 26.1776C30.3099 25.8267 30.4268 25.4205 30.4268 24.9588V23.6108C30.2976 23.6785 30.1406 23.7401 29.956 23.7955C29.7775 23.8509 29.5805 23.9032 29.3651 23.9524C29.1496 24.0017 28.928 24.0447 28.7003 24.0817C28.4725 24.1186 28.254 24.1525 28.0447 24.1832C27.62 24.2509 27.2569 24.3556 26.9553 24.4972C26.6598 24.6387 26.4321 24.8234 26.272 25.0511C26.1181 25.2727 26.0412 25.5374 26.0412 25.8452C26.0412 26.313 26.2074 26.67 26.5398 26.9162C26.8783 27.1624 27.3061 27.2855 27.8232 27.2855ZM42.1804 21.9119V30H37.6655V15.8182H41.9588V18.4219H42.1158C42.4297 17.554 42.9652 16.8738 43.7223 16.3814C44.4794 15.8828 45.3812 15.6335 46.4276 15.6335C47.4247 15.6335 48.2895 15.8582 49.022 16.3075C49.7607 16.7507 50.3331 17.3724 50.7393 18.1726C51.1518 18.9666 51.3549 19.8961 51.3487 20.9609V30H46.8338V21.8473C46.84 21.0594 46.6399 20.4439 46.2337 20.0007C45.8336 19.5575 45.2765 19.3359 44.5625 19.3359C44.0885 19.3359 43.67 19.4406 43.3068 19.6499C42.9498 19.853 42.6728 20.1454 42.4759 20.527C42.285 20.9086 42.1866 21.3703 42.1804 21.9119ZM59.3237 30.2031C58.2773 30.2031 57.3263 29.9323 56.4707 29.3906C55.6151 28.849 54.9319 28.0365 54.421 26.9531C53.9101 25.8698 53.6547 24.5249 53.6547 22.9183C53.6547 21.2502 53.9193 19.8776 54.4487 18.8004C54.978 17.7232 55.6705 16.9261 56.5261 16.4091C57.3878 15.892 58.3142 15.6335 59.3052 15.6335C60.05 15.6335 60.6871 15.7628 61.2164 16.0213C61.7458 16.2737 62.1828 16.5999 62.5275 17C62.8722 17.4001 63.1338 17.8156 63.3123 18.2464H63.4047V11.0909H67.9196V30H63.4508V27.701H63.3123C63.1215 28.138 62.8507 28.5473 62.4998 28.929C62.149 29.3106 61.7089 29.6184 61.1795 29.8523C60.6563 30.0862 60.0377 30.2031 59.3237 30.2031ZM60.8933 26.6854C61.4411 26.6854 61.9089 26.5315 62.2967 26.2237C62.6845 25.9098 62.983 25.4697 63.1923 24.9034C63.4016 24.3371 63.5062 23.6723 63.5062 22.9091C63.5062 22.1335 63.4016 21.4657 63.1923 20.9055C62.9892 20.3454 62.6906 19.9145 62.2967 19.6129C61.9089 19.3113 61.4411 19.1605 60.8933 19.1605C60.3332 19.1605 59.8592 19.3144 59.4714 19.6222C59.0836 19.9299 58.7882 20.3639 58.585 20.924C58.3881 21.4841 58.2896 22.1458 58.2896 22.9091C58.2896 23.6723 58.3912 24.3371 58.5943 24.9034C58.7974 25.4697 59.0898 25.9098 59.4714 26.2237C59.8592 26.5315 60.3332 26.6854 60.8933 26.6854Z" fill="white"/>
</svg>
